Coordinates
version=1
nRows=13
nColumns=34
inDegrees=yes

Units are S.I. units (second, meters, Newtons, ...)
If the header above contains a line with 'inDegrees', this indicates whether rotational values are in degrees (yes) or radians (no).

endheader
time	pelvis_tilt	pelvis_list	pelvis_rotation	pelvis_tx	pelvis_ty	pelvis_tz	hip_flexion_r	hip_adduction_r	hip_rotation_r	knee_angle_r	ankle_angle_r	subtalar_angle_r	mtp_angle_r	hip_flexion_l	hip_adduction_l	hip_rotation_l	knee_angle_l	ankle_angle_l	subtalar_angle_l	mtp_angle_l	lumbar_extension	lumbar_bending	lumbar_rotation	arm_flex_r	arm_add_r	arm_rot_r	elbow_flex_r	pro_sup_r	arm_flex_l	arm_add_l	arm_rot_l	elbow_flex_l	pro_sup_l
      2.65000000	     18.51465361	     10.98573456	      4.16214132	     -0.33206010	      0.52970810	      0.13366593	     73.91616387	      2.48227651	      4.19710435	     35.90132722	    -14.62717819	    -13.22005327	      0.00000000	     69.06891311	     -3.31935814	    -12.06888075	    134.22991235	     32.18207111	    -12.87131518	      0.00000000	    -50.60049247	      1.64700885	      9.33446919	     23.21610270	    -57.56086008	     12.45567013	     77.42540990	     90.43192893	    106.05150587	      0.51996079	     48.69179683	     55.84722313	     76.22925500
      2.66666670	     17.54063864	     11.43542165	      4.53744615	     -0.33372816	      0.52825749	      0.13178574	     75.63653859	      1.97334122	      4.43934820	     37.35503607	    -14.39722068	    -14.44881111	      0.00000000	     69.98644910	     -2.75793098	    -12.87929608	    134.21916724	     32.38676937	    -12.94818729	      0.00000000	    -49.93921415	      1.07849401	     10.68901009	     25.95795945	    -58.62256242	     11.67517377	     77.57255757	     90.31088995	    109.01449854	      1.19159749	     48.08350610	     62.72555885	     76.11690537
      2.68333330	     17.24845586	     11.78753634	      4.40153685	     -0.33581783	      0.52380171	      0.12862646	     76.71134354	      1.72539759	      4.58131854	     38.21237299	    -14.24943855	    -14.83480328	      0.00000000	     70.82822417	     -2.58220483	    -14.00338213	    134.38611575	     32.74226768	    -13.19401441	      0.00000000	    -49.57145669	      0.62279041	     10.55894809	     38.16773807	    -59.08658767	     21.57352660	     73.15883380	     89.70666600	    113.58473568	      1.14918730	     50.13118063	     63.73774674	     76.05534593
      2.70000000	     15.30681976	     12.07987952	      4.72086308	     -0.31437982	      0.51820298	      0.12312405	     80.25274312	      1.45452161	      4.78044953	     41.20996369	    -13.14087739	    -15.01800640	      0.00000000	     72.33118195	     -2.06266224	    -14.44301529	    135.32765948	     32.03469602	    -15.38055110	      0.00000000	    -47.15495139	      0.81500938	     11.72034487	     45.22938872	    -59.83061450	     26.75163289	     70.54530137	     89.06795181	    114.34923324	      1.60237261	     47.28598209	     66.96182403	     76.42336261
      2.71666670	     13.91305125	     12.47040541	      5.43957234	     -0.30623430	      0.51935804	      0.12032147	     82.53330128	      0.69572574	      4.98616203	     43.06886202	    -12.67576470	    -14.92622537	      0.00000000	     72.64646872	     -0.95560403	    -15.21975547	    135.56466955	     33.26451963	    -15.30926967	      0.00000000	    -45.20313652	      0.86271011	     11.54661404	     52.68112848	    -58.90503716	     33.53802311	     66.69221957	     87.75282338	    116.90695474	      1.51848720	     48.30484705	     67.31700892	     78.40858697
      2.73333330	     12.67171078	     12.34890301	      6.78138692	     -0.29779128	      0.51812618	      0.12126790	     84.64731177	     -0.17953076	      4.99047396	     45.47330298	    -10.53817866	    -14.15008595	      0.00000000	     73.21232732	      0.08837793	    -14.43429870	    135.95598975	     33.13186525	    -15.53186429	      0.00000000	    -43.55439371	      1.30613028	     12.69699761	     54.14477599	    -59.35306159	     33.31983270	     65.42297883	     87.52832631	    118.61867349	      3.14202691	     47.73769725	     67.36400967	     78.52934980
      2.75000000	     12.14545327	     12.41258817	      7.22515763	     -0.29997219	      0.51428210	      0.12434031	     86.11500187	     -0.19664247	      5.39290286	     46.71474290	    -10.59177185	    -14.69196611	      0.00000000	     74.06359713	      0.05192493	    -13.87019609	    136.44366926	     34.80703184	    -13.25408325	      0.00000000	    -43.30796013	      0.90260177	     14.09978321	     57.08974850	    -59.73060121	     33.89158081	     64.46280010	     87.23759072	    121.58275130	      5.04420218	     47.77652058	     64.96629653	     78.81741009
      2.76666670	     12.21701746	     12.35891674	      8.05618240	     -0.29715131	      0.51457223	      0.12493762	     85.99473610	     -0.84407747	      5.50567463	     46.56895885	    -10.61210183	    -14.61313681	      0.00000000	     73.94949428	      0.45258749	    -13.03424070	    136.80078200	     33.94357985	    -13.57087690	      0.00000000	    -43.81624566	      1.46048183	     13.63436179	     65.03958479	    -57.82636270	     40.26464657	     61.28626648	     85.22472686	    125.26881945	      4.68521900	     49.95738300	     62.65414249	     79.72261328
      2.78333330	     12.88422245	     12.71355725	      6.81901132	     -0.32194775	      0.51014366	      0.13792974	     85.13689497	      0.81600646	      6.06927399	     45.44079805	    -12.85723028	    -16.40314656	      0.00000000	     74.63970477	     -1.11774025	    -13.54536730	    136.54664611	     33.25595160	    -12.09488950	      0.00000000	    -46.86195483	     -0.32899867	     14.69099764	     74.37280382	    -56.51904053	     45.14419992	     58.72310874	     84.20368782	    132.13096556	      5.90062857	     51.86443803	     57.33099402	     79.33044941
      2.80000000	     13.26060377	     12.52230063	      6.59674139	     -0.30838825	      0.51311338	      0.13484154	     84.57964159	      1.01734754	      5.61635086	     45.38478504	    -13.30050388	    -16.45510748	      0.00000000	     74.40038362	     -1.68836102	    -12.62117134	    136.47412031	     32.67279090	    -11.42962621	      0.00000000	    -48.62156331	      0.22701544	     14.71005455	     84.26475270	    -53.43178078	     53.24707366	     53.77952194	     81.88179641	    135.82390192	      3.89553036	     53.42952930	     56.77142282	     77.73622362
      2.81666670	     12.62857631	     12.31173094	      6.20871572	     -0.30338672	      0.51691633	      0.13550814	     84.98464998	      1.51441759	      5.30638047	     45.74623506	    -13.84205215	    -16.74658469	      0.00000000	     74.45997994	     -2.25970576	    -12.45579595	    136.24097574	     32.60577360	    -10.31601243	      0.00000000	    -49.42098945	      0.16494438	     15.31725766	     89.78660255	    -50.81221881	     56.22633657	     50.46784688	     78.13611598	    138.94406944	      2.86401212	     54.46296396	     56.90183320	     75.91371282
      2.83333330	     11.94758870	     11.99429691	      6.34680151	     -0.29721637	      0.51790804	      0.13519569	     85.37037635	      1.36490090	      4.84685366	     45.66265428	    -13.16026682	    -16.26742018	      0.00000000	     74.56875445	     -2.52883865	    -11.80325253	    136.18480030	     32.96842296	     -9.05151373	      0.00000000	    -49.89320868	      0.39921188	     16.72459512	     92.87953806	    -50.05702165	     55.59859327	     48.90196387	     77.40390477	    140.87320856	      3.07777977	     53.63430384	     56.70800810	     75.54537650
      2.85000000	     10.52523896	     11.51637411	      6.44530193	     -0.29420533	      0.51763969	      0.13762147	     87.06714975	      1.56985527	      4.11470896	     46.91495336	    -13.18133417	    -16.85658339	      0.00000000	     74.97968475	     -3.08950583	    -10.61964417	    136.27743320	     34.56356383	     -6.50265116	      0.00000000	    -49.48265096	      0.28722432	     17.46263036	     96.10694745	    -48.27224222	     57.16477877	     45.66959999	     74.75380662	    143.72307019	      3.30097990	     55.20116441	     55.54666566	     74.61521219
